<svg id="Layer_1" data-name="Layer 1" xmlns="http://www.w3.org/2000/svg" viewBox="0 0 431.53 618.29"><defs><style>.cls-1{fill:#fff;}.cls-2{fill:#00a79d;}.cls-3{fill:#005a51;}</style></defs><path class="cls-1" d="M373.42,326.54a17.68,17.68,0,1,0-24-7.08A17.68,17.68,0,0,0,373.42,326.54Z" transform="translate(-8.52 -12.21)"/><path class="cls-1" d="M217.06,105.82a17.7,17.7,0,1,0,24,7.08A17.7,17.7,0,0,0,217.06,105.82Z" transform="translate(-8.52 -12.21)"/><path class="cls-1" d="M335.38,347.26a17.7,17.7,0,1,0-24-7.08A17.7,17.7,0,0,0,335.38,347.26Z" transform="translate(-8.52 -12.21)"/><path class="cls-1" d="M269.32,77.38a17.69,17.69,0,1,0,24,7.06A17.67,17.67,0,0,0,269.32,77.38Z" transform="translate(-8.52 -12.21)"/><path class="cls-1" d="M371.24,90l-91.63-52.9a113.46,113.46,0,0,0-113.11,0L74.87,90A113.43,113.43,0,0,0,18.31,188V293.78a113.43,113.43,0,0,0,56.56,98l91.63,52.9a113.38,113.38,0,0,0,113.11,0l91.63-52.9a113.4,113.4,0,0,0,56.55-98V188A113.39,113.39,0,0,0,371.24,90ZM319.59,209.53a42.84,42.84,0,0,1-17.14,58.06,40.54,40.54,0,0,1-51.52-11,10.65,10.65,0,0,0-14.47-4.26l-12.28,6.69a10.64,10.64,0,0,0-4.23,14.5l39.11,71A12.71,12.71,0,0,1,254,361.73l-1,.56L246.17,366a26.78,26.78,0,0,0-10.72,36.33,8.12,8.12,0,0,0,11,3.25l23.19-12.62,1-.56c.17-.08.32-.19.49-.29a47.6,47.6,0,0,0,18.54-64.24l-11.22-20.61a74.89,74.89,0,0,0,40.65-9A77.76,77.76,0,0,0,359.5,225.1L416.55,194V295.75A98.44,98.44,0,0,1,367.34,381l-95.06,54.89a98.48,98.48,0,0,1-98.45,0L78.78,381a98.29,98.29,0,0,1-36.69-37.21l64.26-35,30.25,55.57c12.12,22.26,39.84,31.44,62.38,19.85a46.45,46.45,0,0,0,19.56-63.47l-30.66-56.34-.28-.51a47.22,47.22,0,0,0,10.8-4.24l1-.57a46.12,46.12,0,0,0,22-26.56,46.21,46.21,0,0,0,46.92-26.09,45.06,45.06,0,0,0,31.3-4.43l1-.57a47.58,47.58,0,0,0,19.05-64.53l-7.84-14.39a6.87,6.87,0,0,0-9.31-2.74l-5.47,3a21.78,21.78,0,0,0-8.73,29.55l.69,1.28a12.7,12.7,0,0,1-5.07,17.2l-1,.57a10.4,10.4,0,0,1-14.06-4.16l-8.94-16.41a6.86,6.86,0,0,0-9.32-2.76l-5.48,3a21.79,21.79,0,0,0-8.74,29.55,11.74,11.74,0,0,1-3,15A11.52,11.52,0,0,1,216.36,192L209,178.51a6.86,6.86,0,0,0-9.31-2.74l-6,3.23a21.79,21.79,0,0,0-8.71,29.57l2.31,4.27a11.51,11.51,0,0,1-4.61,15.62l-1,.57a11.52,11.52,0,0,1-15.61-4.62l-25.59-47a46.45,46.45,0,0,0-63.92-18c-22,12.64-29.31,40.91-17.19,63.17l30.26,55.57-59,32.12a98.29,98.29,0,0,1-1.09-14.52V186a98.47,98.47,0,0,1,49.22-85.25l95.05-54.89a98.48,98.48,0,0,1,98.45,0l95.06,54.89a98.46,98.46,0,0,1,44.76,56L349.21,191l-28.78,15.67A2.12,2.12,0,0,0,319.59,209.53ZM120.32,261.47l-30.47-56a11.79,11.79,0,0,1,3.73-15.58,11.52,11.52,0,0,1,16.3,4.21l12.83,23.56,12.74,23.41h0l5.09,9.36Zm36.91,19.64,30.67,56.33a11.54,11.54,0,0,1-5.32,16,11.79,11.79,0,0,1-15.11-5.33l-30.47-56Z" transform="translate(-8.52 -12.21)"/><path class="cls-1" d="M164.8,134.28a17.69,17.69,0,1,0,24,7.08A17.67,17.67,0,0,0,164.8,134.28Z" transform="translate(-8.52 -12.21)"/><path class="cls-2" d="M320.43,206.64,349.21,191l62.89-34.23a98.46,98.46,0,0,0-44.76-56L272.28,45.85a98.48,98.48,0,0,0-98.45,0L78.78,100.74A98.47,98.47,0,0,0,29.56,186V295.75a98.29,98.29,0,0,0,1.09,14.52l59-32.12L59.41,222.58c-12.12-22.26-4.77-50.53,17.19-63.17a46.45,46.45,0,0,1,63.92,18l25.59,47A11.52,11.52,0,0,0,181.72,229l1-.57a11.51,11.51,0,0,0,4.61-15.62l-2.31-4.27A21.79,21.79,0,0,1,193.76,179l6-3.23a6.86,6.86,0,0,1,9.31,2.74L216.36,192a11.52,11.52,0,0,0,17.08,3.66,11.74,11.74,0,0,0,3-15,21.79,21.79,0,0,1,8.74-29.55l5.48-3a6.86,6.86,0,0,1,9.32,2.76l8.94,16.41a10.4,10.4,0,0,0,14.06,4.16l1-.57a12.7,12.7,0,0,0,5.07-17.2l-.69-1.28a21.78,21.78,0,0,1,8.73-29.55l5.47-3a6.87,6.87,0,0,1,9.31,2.74l7.84,14.39a47.58,47.58,0,0,1-19.05,64.53l-1,.57a45.06,45.06,0,0,1-31.3,4.43,46.21,46.21,0,0,1-46.92,26.09,46.12,46.12,0,0,1-22,26.56l-1,.57a47.22,47.22,0,0,1-10.8,4.24l.28.51,30.66,56.34A46.45,46.45,0,0,1,199,384.23c-22.54,11.59-50.26,2.41-62.38-19.85l-30.25-55.57-64.26,35A98.29,98.29,0,0,0,78.78,381l95.05,54.89a98.48,98.48,0,0,0,98.45,0L367.34,381a98.44,98.44,0,0,0,49.21-85.25V194L359.5,225.1a77.76,77.76,0,0,1-40.37,73.15,74.89,74.89,0,0,1-40.65,9l11.22,20.61a47.6,47.6,0,0,1-18.54,64.24c-.17.1-.32.21-.49.29l-1,.56-23.19,12.62a8.12,8.12,0,0,1-11-3.25A26.78,26.78,0,0,1,246.17,366l6.78-3.68,1-.56a12.71,12.71,0,0,0,5.07-17.21l-39.11-71a10.64,10.64,0,0,1,4.23-14.5l12.28-6.69a10.65,10.65,0,0,1,14.47,4.26,40.54,40.54,0,0,0,51.52,11,42.84,42.84,0,0,0,17.14-58.06A2.12,2.12,0,0,1,320.43,206.64ZM181.72,165.35a17.69,17.69,0,1,1,7.08-24A17.71,17.71,0,0,1,181.72,165.35ZM234,136.91a17.7,17.7,0,1,1,7.08-24A17.72,17.72,0,0,1,234,136.91Zm52.26-28.46a17.69,17.69,0,1,1,7.08-24A17.68,17.68,0,0,1,286.24,108.45Zm70.28,187a17.68,17.68,0,1,1-7.09,24A17.68,17.68,0,0,1,356.52,295.47Zm-38.06,20.7a17.7,17.7,0,1,1-7.08,24A17.72,17.72,0,0,1,318.46,316.17Z" transform="translate(-8.52 -12.21)"/><path class="cls-2" d="M182.58,353.42a11.54,11.54,0,0,0,5.32-16l-30.67-56.33-20.23,11,30.47,56A11.79,11.79,0,0,0,182.58,353.42Z" transform="translate(-8.52 -12.21)"/><path class="cls-2" d="M135.45,241.1l-12.74-23.41-12.83-23.56a11.52,11.52,0,0,0-16.3-4.21,11.79,11.79,0,0,0-3.73,15.58l30.47,56,20.23-11-5.09-9.36Z" transform="translate(-8.52 -12.21)"/><path class="cls-2" d="M376.15,81.55,284.51,28.63a123.21,123.21,0,0,0-122.91,0L70,81.55A123.2,123.2,0,0,0,8.52,188V293.78A123.28,123.28,0,0,0,70,400.22l91.63,52.9a123.21,123.21,0,0,0,122.91,0l91.64-52.9a123.27,123.27,0,0,0,61.44-106.44V188A123.19,123.19,0,0,0,376.15,81.55Zm51.64,212.23a113.4,113.4,0,0,1-56.55,98l-91.63,52.9a113.38,113.38,0,0,1-113.11,0l-91.63-52.9a113.43,113.43,0,0,1-56.56-98V188A113.43,113.43,0,0,1,74.87,90l91.63-52.9a113.46,113.46,0,0,1,113.11,0L371.24,90A113.39,113.39,0,0,1,427.79,188Z" transform="translate(-8.52 -12.21)"/><polygon class="cls-3" points="2.46 506.04 11.57 506.04 11.57 542.95 37.68 542.95 37.68 550.93 2.46 550.93 2.46 506.04"/><path class="cls-3" d="M55,518.24H71.48A44.72,44.72,0,0,1,84,519.8a24.4,24.4,0,0,1,8.81,4.43,17.9,17.9,0,0,1,5.19,7,24,24,0,0,1,1.71,9.27,23.64,23.64,0,0,1-1.69,9,19,19,0,0,1-5.17,7.18,24.77,24.77,0,0,1-8.79,4.75,41.41,41.41,0,0,1-12.53,1.7l-16.52,0Zm18.71,37a22.14,22.14,0,0,0,7.15-1.06,13.9,13.9,0,0,0,5.13-3,12.15,12.15,0,0,0,3.08-4.65,17.06,17.06,0,0,0,1-6.09,16.31,16.31,0,0,0-1-6A11.64,11.64,0,0,0,86,530a14,14,0,0,0-5.13-2.86,23.06,23.06,0,0,0-7.15-1h-9.6v29.11Z" transform="translate(-8.52 -12.21)"/><polygon class="cls-3" points="100.34 506.04 109.44 506.04 109.44 529.28 133.14 506.04 144.81 506.04 122.69 527.47 144.81 550.93 132.68 550.93 116.14 533.82 109.44 540.28 109.44 550.93 100.34 550.93 100.34 506.04"/><path class="cls-3" d="M179.44,549.79a53.34,53.34,0,0,0,5,2.48,39.27,39.27,0,0,0,5.21,1.87,39.77,39.77,0,0,0,5.67,1.16,47.18,47.18,0,0,0,6.34.4,37.61,37.61,0,0,0,6.89-.53,16.71,16.71,0,0,0,4.64-1.46,6.61,6.61,0,0,0,2.62-2.23,5.19,5.19,0,0,0,.81-2.81,4.48,4.48,0,0,0-2-3.87c-1.35-.94-3.45-1.42-6.29-1.42a32.16,32.16,0,0,0-3.93.25c-1.38.16-2.77.34-4.18.53s-2.8.36-4.17.53a33.28,33.28,0,0,1-3.86.24,21.69,21.69,0,0,1-5.79-.77,15.48,15.48,0,0,1-4.91-2.33A11.56,11.56,0,0,1,178,538a11.22,11.22,0,0,1-1.26-5.43,13.84,13.84,0,0,1,.5-3.65,12.34,12.34,0,0,1,1.61-3.46,14.14,14.14,0,0,1,2.86-3.07,17.07,17.07,0,0,1,4.24-2.46,27.58,27.58,0,0,1,5.74-1.62,42.39,42.39,0,0,1,7.43-.59,56.21,56.21,0,0,1,6.06.33q3,.33,5.93.93a57.14,57.14,0,0,1,5.56,1.46,44.82,44.82,0,0,1,5,1.88l-4,7.35c-1.27-.55-2.63-1.07-4.08-1.54s-3-.87-4.57-1.22-3.23-.61-4.93-.82a44.09,44.09,0,0,0-5.18-.3,29.2,29.2,0,0,0-6.19.55,13.64,13.64,0,0,0-3.87,1.39,5.16,5.16,0,0,0-2,1.9,4.42,4.42,0,0,0-.56,2.08,3.87,3.87,0,0,0,1.81,3.29,9.6,9.6,0,0,0,5.51,1.28A30.23,30.23,0,0,0,197,536l4.07-.47c1.43-.17,2.89-.33,4.37-.48s2.93-.21,4.33-.21a25.31,25.31,0,0,1,7,.89,14.67,14.67,0,0,1,5.13,2.54,10.72,10.72,0,0,1,3.13,4,12.56,12.56,0,0,1,1.06,5.25,13.38,13.38,0,0,1-1.79,6.91,15.25,15.25,0,0,1-5.12,5.11,25.87,25.87,0,0,1-8,3.16,46.49,46.49,0,0,1-10.43,1.08,56.47,56.47,0,0,1-7.41-.48,53.12,53.12,0,0,1-6.93-1.35,52.15,52.15,0,0,1-6.33-2.09,46.16,46.16,0,0,1-5.55-2.69Z" transform="translate(-8.52 -12.21)"/><path class="cls-3" d="M239.17,567.4a18.56,18.56,0,0,0,2.87,1.52,22.7,22.7,0,0,0,3.23,1.09,27.69,27.69,0,0,0,3.43.65,29.27,29.27,0,0,0,3.48.21c3.9,0,6.92-.84,9-2.51s3.18-4.19,3.18-7.54v-1.15a16.74,16.74,0,0,1-2.52,1.42,21.38,21.38,0,0,1-3,1.11,25,25,0,0,1-3.36.7,26.58,26.58,0,0,1-3.58.24A19.77,19.77,0,0,1,245,562a13.73,13.73,0,0,1-5.17-3.33,14.53,14.53,0,0,1-3.23-5.42,22.17,22.17,0,0,1-1.12-7.35V529.25H244v14.3q0,6.15,2.34,9.07t7.4,2.91a15,15,0,0,0,6.31-1.25,12.15,12.15,0,0,0,4.38-3.2V529.25h8.5v30a23.42,23.42,0,0,1-1.38,8.43,15.07,15.07,0,0,1-4,5.93,16.93,16.93,0,0,1-6.44,3.52,30,30,0,0,1-8.68,1.16,37.19,37.19,0,0,1-8.85-1,35,35,0,0,1-7.52-2.73Z" transform="translate(-8.52 -12.21)"/><path class="cls-3" d="M282.28,552.46a9.42,9.42,0,0,1,1.07-4.46,9.74,9.74,0,0,1,3.18-3.46,16.63,16.63,0,0,1,5.31-2.24,31.11,31.11,0,0,1,7.39-.79,51.39,51.39,0,0,1,6.6.46,61.85,61.85,0,0,1,7.13,1.41,6.77,6.77,0,0,0-1-3,7.66,7.66,0,0,0-2.32-2.36,11.49,11.49,0,0,0-3.56-1.53,18.37,18.37,0,0,0-4.72-.55c-1,0-2,.06-3.16.17s-2.34.29-3.57.52-2.43.52-3.63.86a24,24,0,0,0-3.35,1.23l-2.58-7c1.28-.47,2.66-.88,4.12-1.27s3-.71,4.5-1,3.06-.49,4.59-.65,3-.23,4.45-.23q9.51,0,14.14,4.86t4.62,14.88v14.77H313V560a28.81,28.81,0,0,1-2.89,1.46,24.57,24.57,0,0,1-3.4,1.21,31.25,31.25,0,0,1-4,.82,31.84,31.84,0,0,1-4.47.3,25.48,25.48,0,0,1-7-.86,15.12,15.12,0,0,1-5-2.39,10.06,10.06,0,0,1-3-3.57,9.91,9.91,0,0,1-1-4.47m9-.29a3.18,3.18,0,0,0,.43,1.6,3.93,3.93,0,0,0,1.37,1.35,8.62,8.62,0,0,0,2.43.94,15.38,15.38,0,0,0,3.58.36,22.9,22.9,0,0,0,4.34-.4,25.93,25.93,0,0,0,3.91-1.06,20.6,20.6,0,0,0,3.27-1.52,13.42,13.42,0,0,0,2.44-1.79v-1.49c-1.3-.36-2.59-.67-3.86-.92s-2.49-.44-3.65-.59-2.25-.24-3.28-.3-1.92-.08-2.68-.08a20.94,20.94,0,0,0-4,.31,9.26,9.26,0,0,0-2.55.85,3.27,3.27,0,0,0-1.38,1.25,3,3,0,0,0-.4,1.49" transform="translate(-8.52 -12.21)"/><path class="cls-3" d="M332.76,515.52h8.5v16.31a26.22,26.22,0,0,1,6-2.32,26.92,26.92,0,0,1,6.91-.87,21.49,21.49,0,0,1,7.54,1.24,15.17,15.17,0,0,1,9.25,9.16,21,21,0,0,1,1.25,7.44v16.66h-8.48V546.83a12,12,0,0,0-.77-4.41,9.48,9.48,0,0,0-2.27-3.44,10.46,10.46,0,0,0-3.63-2.22,13.84,13.84,0,0,0-4.84-.79,17.22,17.22,0,0,0-6,1,19.37,19.37,0,0,0-4.88,2.62v23.52h-8.5Z" transform="translate(-8.52 -12.21)"/><path class="cls-3" d="M386.16,524.62a6.82,6.82,0,0,1-2.28-.36,5.24,5.24,0,0,1-1.74-1,4.39,4.39,0,0,1-1.11-1.44,4,4,0,0,1-.38-1.74,4.08,4.08,0,0,1,.38-1.77,4.22,4.22,0,0,1,1.11-1.42,5.6,5.6,0,0,1,1.74-1,6.82,6.82,0,0,1,2.28-.36,6.91,6.91,0,0,1,2.31.36,5.6,5.6,0,0,1,1.74,1,4.22,4.22,0,0,1,1.11,1.42,4.09,4.09,0,0,1,.39,1.77,4,4,0,0,1-.39,1.74,4.39,4.39,0,0,1-1.11,1.44,5.24,5.24,0,0,1-1.74,1,6.91,6.91,0,0,1-2.31.36m-4.25,4.63h8.5v33.9h-8.5Z" transform="translate(-8.52 -12.21)"/><path class="cls-3" d="M398.68,546.34a17,17,0,0,1,1.53-7.31,16.31,16.31,0,0,1,4.21-5.57,18.94,18.94,0,0,1,6.37-3.57,24.89,24.89,0,0,1,8-1.25,29.28,29.28,0,0,1,3.64.23,32.48,32.48,0,0,1,3.45.64,24.47,24.47,0,0,1,3.1,1,17.12,17.12,0,0,1,2.57,1.22v-16.2h8.5v47.65h-8.5V560a17.88,17.88,0,0,1-2.64,1.46,26.28,26.28,0,0,1-3.28,1.21,30,30,0,0,1-3.63.82,24.75,24.75,0,0,1-11.64-1,18.59,18.59,0,0,1-6.19-3.57,16.1,16.1,0,0,1-4-5.5,16.92,16.92,0,0,1-1.46-7.08m8.94,0a9.18,9.18,0,0,0,.82,3.85,9.4,9.4,0,0,0,2.35,3.17,11.47,11.47,0,0,0,3.71,2.16,14.29,14.29,0,0,0,4.87.79,18.32,18.32,0,0,0,3.45-.33,19.07,19.07,0,0,0,3.31-.94,17.27,17.27,0,0,0,3-1.46,12.82,12.82,0,0,0,2.43-1.93V539.9a15.81,15.81,0,0,0-2.73-1.75,18.26,18.26,0,0,0-2.93-1.17,18.79,18.79,0,0,0-3-.68,21.63,21.63,0,0,0-3-.22,15.79,15.79,0,0,0-5.21.8,11.22,11.22,0,0,0-3.85,2.16,9.45,9.45,0,0,0-2.4,3.25,9.91,9.91,0,0,0-.83,4.05" transform="translate(-8.52 -12.21)"/><path class="cls-3" d="M71.07,605.72h3.75v10.19a6.65,6.65,0,0,0,.35,2.23,4.27,4.27,0,0,0,1,1.65,4.37,4.37,0,0,0,1.69,1,8,8,0,0,0,4.68,0,4.3,4.3,0,0,0,1.69-1,4.17,4.17,0,0,0,1-1.65,6.66,6.66,0,0,0,.34-2.23V605.72h3.76v10.64a8.65,8.65,0,0,1-.62,3.32A7.06,7.06,0,0,1,87,622.23a8.16,8.16,0,0,1-2.87,1.65,13.23,13.23,0,0,1-7.75,0,8.12,8.12,0,0,1-2.88-1.65,7.06,7.06,0,0,1-1.79-2.55,8.84,8.84,0,0,1-.61-3.32Z" transform="translate(-8.52 -12.21)"/><rect class="cls-3" x="96.11" y="593.51" width="3.78" height="18.51"/><polygon class="cls-3" points="115.8 593.51 119.55 593.51 131.09 599.55 131.09 593.51 134.84 593.51 134.84 612.01 131.09 612.01 131.09 603.52 119.55 597.52 119.55 612.01 115.8 612.01 115.8 593.51"/><path class="cls-3" d="M175.39,627.29a8.93,8.93,0,0,0,1.4-1,5.5,5.5,0,0,0,1-1.2,5,5,0,0,0,.55-1.47,8.56,8.56,0,0,0,.18-1.84v-16h3.76v15.34a22,22,0,0,1-.11,2.25,10.86,10.86,0,0,1-.35,1.85,6.82,6.82,0,0,1-.65,1.56,7.42,7.42,0,0,1-1,1.35,9.57,9.57,0,0,1-1.41,1.23,17.9,17.9,0,0,1-1.87,1.2Z" transform="translate(-8.52 -12.21)"/><path class="cls-3" d="M204.51,605.72h4l8.95,18.5h-3.95L212,621.11H201.2l-1.43,3.11h-4Zm6,12.3-4-8.41L202.64,618Z" transform="translate(-8.52 -12.21)"/><polygon class="cls-3" points="222.95 593.51 226.7 593.51 226.7 603.09 236.47 593.51 241.28 593.51 232.16 602.34 241.28 612.01 236.28 612.01 229.46 604.96 226.7 607.62 226.7 612.01 222.95 612.01 222.95 593.51"/><path class="cls-3" d="M269.11,605.72h4l9,18.5H278.1l-1.48-3.11H265.81l-1.43,3.11h-4Zm6,12.3-4-8.41-3.9,8.41Z" transform="translate(-8.52 -12.21)"/><path class="cls-3" d="M296.08,605.72h9.41a13.43,13.43,0,0,1,3.69.44,7.12,7.12,0,0,1,2.6,1.29,5.22,5.22,0,0,1,1.53,2,7,7,0,0,1,.5,2.74,7.36,7.36,0,0,1-.25,2,5.73,5.73,0,0,1-.76,1.71,5.88,5.88,0,0,1-1.3,1.39,7,7,0,0,1-1.83,1l4,5.92H309.1L305.62,619h-5.79v5.26h-3.75Zm9.5,10a6.23,6.23,0,0,0,1.87-.25,4,4,0,0,0,1.34-.7,2.89,2.89,0,0,0,.8-1.09,3.7,3.7,0,0,0,.27-1.44,2.89,2.89,0,0,0-1.07-2.4,5.13,5.13,0,0,0-3.21-.85h-5.75v6.73Z" transform="translate(-8.52 -12.21)"/><polygon class="cls-3" points="326.46 596.8 319.63 596.8 319.63 593.51 337.05 593.51 337.05 596.8 330.22 596.8 330.22 612.01 326.46 612.01 326.46 596.8"/><path class="cls-3" d="M367,605.72h4l9,18.5H376l-1.49-3.11H363.73l-1.43,3.11h-3.95Zm6,12.3-4-8.41L365.17,618Z" transform="translate(-8.52 -12.21)"/></svg>