<?xml version="1.0" encoding="utf-8"?>
<!-- Generator: Adobe Illustrator 24.2.2, SVG Export Plug-In . SVG Version: 6.00 Build 0)  -->
<svg version="1.1" id="Layer_1" xmlns="http://www.w3.org/2000/svg" xmlns:xlink="http://www.w3.org/1999/xlink" x="0px" y="0px"
	 viewBox="0 0 455.8 656.9" style="enable-background:new 0 0 455.8 656.9;" xml:space="preserve">
<style type="text/css">
	.st0{fill:#FFFFFF;}
	.st1{fill:#00A79D;}
	.st2{fill:#005A51;}
</style>
<g>
	<g>
		<path class="st0" d="M455.8,186.7v112.4c-0.1,46.6-24.9,89.7-65.3,113.1l-97.3,56.2c-40.4,23.3-90.1,23.3-130.5,0l-97.4-56.2
			C25,388.8,0.1,345.8,0,299.1V186.7C0.1,140.1,24.9,97,65.3,73.6l97.3-56.1c40.4-23.3,90.2-23.3,130.6,0l97.3,56.2
			C430.8,97.1,455.7,140.1,455.8,186.7z"/>
		<path class="st1" d="M372.8,226.3c2,32-14.7,62.3-42.9,77.7c-13.2,7.2-28.1,10.5-43.1,9.5l11.9,21.9c13.2,24.3,4.4,54.7-19.7,68.3
			l-0.5,0.3l-1.1,0.6L252.8,418c-4.2,2.3-9.4,0.7-11.7-3.4l0,0c-7.5-13.8-2.4-31.1,11.4-38.6l0,0l7.2-3.9l1.1-0.6
			c6.5-3.5,8.9-11.7,5.4-18.3l0,0l-41.5-75.4c-3-5.5-1-12.4,4.5-15.4c0,0,0,0,0.1,0l13-7.1c5.5-3,12.4-1,15.4,4.5l0,0
			c12.9,16.8,36.1,21.8,54.7,11.7c22-12,30.2-39.6,18.2-61.7c-0.6-1.1-0.2-2.5,0.9-3.1l0,0l30.6-16.6l66.8-36.4
			c-7.8-25.1-24.7-46.3-47.5-59.5l-101-58.3c-32.4-18.7-72.2-18.7-104.6,0l-101,58.3c-32.4,18.7-52.3,53.2-52.3,90.6v116.6
			c0,5.2,0.4,10.3,1.2,15.4l62.7-34.1l-32.1-59C41.4,200,49.2,170,72.5,156.6c23.7-13.6,53.8-5.4,67.4,18.3c0.2,0.3,0.3,0.6,0.5,0.9
			l27.2,49.9c3.2,5.9,10.7,8.1,16.6,4.9l0,0l1.1-0.6c5.9-3.2,8.1-10.7,4.9-16.6l-2.5-4.5c-6.1-11.2-2-25.3,9.3-31.4l0,0l6.3-3.4
			c3.5-1.9,8-0.6,9.9,2.9l0,0l7.8,14.3c3.2,5.9,10.7,8.1,16.6,4.9c0.5-0.3,1-0.6,1.5-1c4.8-3.8,6.2-10.6,3.2-15.9
			c-6.1-11.2-2-25.3,9.3-31.4l0,0l5.8-3.2c3.5-1.9,8-0.6,9.9,2.9l0,0l9.5,17.4c2.9,5.3,9.6,7.3,14.9,4.4l1.1-0.6
			c6.5-3.6,8.9-11.7,5.4-18.3l-0.7-1.4c-6.1-11.2-2-25.3,9.3-31.4l0,0l5.8-3.2c3.5-1.9,8-0.6,9.9,2.9l0,0l8.3,15.3
			c13.3,24.5,4.3,55.2-20.2,68.6l-1.1,0.6c-10.1,5.6-22,7.3-33.3,4.8c-9,18.9-29,30.1-49.8,27.7c-3.9,12.1-12.2,22.2-23.3,28.2
			l-1.1,0.6c-3.6,2-7.5,3.5-11.5,4.5l0.3,0.5l32.6,59.9c13,24,4.1,53.9-19.8,66.9c-0.3,0.2-0.6,0.3-1,0.5
			c-23.9,12.3-53.4,2.5-66.3-21.1l-32.1-59l-68.3,37.2c9.2,16.5,22.7,30.1,39,39.5l101,58.3c32.4,18.7,72.2,18.7,104.6,0l101-58.3
			c32.4-18.7,52.3-53.2,52.3-90.6V193.3L372.8,226.3 M183.9,162.8c-9.1,5-20.5,1.6-25.5-7.5s-1.6-20.5,7.5-25.5
			c9.1-5,20.5-1.6,25.5,7.5l0,0C196.4,146.4,193.1,157.8,183.9,162.8C184,162.8,183.9,162.8,183.9,162.8 M239.5,132.6
			c-9.1,5-20.5,1.6-25.5-7.5s-1.6-20.5,7.5-25.5S242,98,247,107.1C252,116.2,248.6,127.6,239.5,132.6L239.5,132.6 M295,102.4
			c-9.1,5-20.5,1.6-25.5-7.5s-1.6-20.5,7.5-25.5s20.5-1.6,25.5,7.5l0,0C307.5,86,304.1,97.4,295,102.4L295,102.4 M347.2,356.1
			c-9.1,5-20.5,1.6-25.5-7.5s-1.6-20.5,7.5-25.5s20.5-1.6,25.5,7.5C359.6,339.7,356.3,351.1,347.2,356.1 M387.6,334.1
			c-9.1,4.9-20.5,1.5-25.5-7.6c-4.9-9.1-1.5-20.5,7.6-25.5c9.1-4.9,20.5-1.5,25.4,7.6C400.1,317.7,396.8,329.1,387.6,334.1
			C387.7,334,387.7,334,387.6,334.1"/>
		<path class="st1" d="M184.9,362.6c6.1-2.8,8.8-10.1,6-16.2c-0.1-0.3-0.2-0.5-0.4-0.8l-32.6-59.8l-21.4,11.7l32.4,59.5
			C171.9,362.8,178.9,365.2,184.9,362.6"/>
		<path class="st1" d="M107.6,193.4c-3.2-5.9-10.7-8.1-16.6-4.9c-0.2,0.1-0.5,0.3-0.7,0.4c-5.5,3.6-7.2,10.8-4,16.6l32.4,59.5
			l21.5-11.7l-5.4-9.9l0,0l-13.5-24.9L107.6,193.4z"/>
		<path class="st1" d="M227.9,485.9c-22.9,0-45.4-6-65.3-17.4l-97.3-56.2C25,388.9,0.1,345.9,0,299.2V186.8
			c0.1-46.6,24.9-89.7,65.3-113.1l97.3-56.2c40.4-23.3,90.1-23.3,130.6,0l97.3,56.2c40.3,23.4,65.2,66.4,65.3,113.1v112.4
			c-0.1,46.6-24.9,89.7-65.3,113.1l-97.3,56.2C273.3,480,250.8,486,227.9,485.9 M227.9,10.5c-21.1,0-41.8,5.5-60.1,16L70.4,82.7
			c-37.1,21.5-60,61.2-60.1,104.1v112.4c0.1,42.9,22.9,82.5,60.1,104.1l97.4,56.2c37.2,21.4,83,21.4,120.2,0l97.3-56.2
			c37.1-21.5,60-61.2,60.1-104.1V186.8c-0.1-42.9-23-82.5-60.1-104.1L288,26.5C269.7,16.1,248.9,10.6,227.9,10.5"/>
	</g>
	<g>
		<polygon class="st2" points="0,537.7 9.7,537.7 9.7,576.9 37.4,576.9 37.4,585.4 0,585.4 		"/>
		<path class="st2" d="M46.8,537.7h17.5c4.5-0.1,9,0.5,13.3,1.7c3.4,0.9,6.6,2.5,9.4,4.7c2.4,2,4.3,4.5,5.5,7.5
			c1.2,3.1,1.9,6.5,1.8,9.8c0,3.3-0.6,6.5-1.8,9.6c-1.2,2.9-3.1,5.6-5.5,7.6c-2.7,2.3-5.9,4-9.3,5c-4.3,1.3-8.8,1.9-13.3,1.8H46.8
			V537.7z M66.6,577c2.6,0,5.1-0.3,7.6-1.1c2-0.6,3.9-1.7,5.5-3.2c1.5-1.4,2.6-3.1,3.3-4.9c0.8-2.1,1.1-4.3,1.1-6.5S83.8,557,83,555
			c-0.7-1.8-1.8-3.5-3.3-4.8c-1.6-1.4-3.4-2.4-5.5-3c-2.5-0.8-5-1.1-7.6-1.1H56.4V577L66.6,577z"/>
		<polygon class="st2" points="104,537.7 113.6,537.7 113.6,562.4 138.8,537.7 151.2,537.7 127.7,560.5 151.2,585.4 138.3,585.4 
			120.7,567.2 113.6,574.1 113.6,585.4 104,585.4 		"/>
		<path class="st2" d="M178.9,571.2c1.7,1,3.5,1.9,5.3,2.6c1.8,0.8,3.6,1.5,5.5,2c2,0.6,4,1,6,1.2c2.2,0.3,4.5,0.4,6.7,0.4
			c2.5,0,4.9-0.2,7.3-0.6c1.7-0.3,3.4-0.8,4.9-1.6c1.1-0.5,2.1-1.3,2.8-2.4c0.6-0.9,0.9-1.9,0.9-3c0-1.7-0.8-3.2-2.2-4.1
			c-1.4-1-3.7-1.5-6.7-1.5c-1.4,0-2.8,0.1-4.2,0.3c-1.5,0.2-3,0.4-4.4,0.6s-3,0.4-4.4,0.6c-1.4,0.2-2.7,0.3-4.1,0.3
			c-2.1,0-4.1-0.3-6.1-0.8c-1.9-0.5-3.6-1.3-5.2-2.5c-1.5-1.1-2.7-2.5-3.6-4.1c-0.9-1.8-1.4-3.8-1.3-5.8c0-1.3,0.2-2.6,0.5-3.9
			c0.4-1.3,0.9-2.5,1.7-3.7s1.8-2.3,3-3.3c1.4-1.1,2.9-2,4.5-2.6c2-0.8,4-1.4,6.1-1.7c2.6-0.4,5.2-0.7,7.9-0.6
			c2.2,0,4.3,0.1,6.4,0.3c2.2,0.2,4.3,0.6,6.3,1s4,0.9,5.9,1.5c1.8,0.6,3.6,1.2,5.3,2l-4.1,7.8c-1.4-0.6-2.9-1.2-4.3-1.6
			c-1.6-0.5-3.2-0.9-4.8-1.3c-1.7-0.4-3.4-0.7-5.2-0.9s-3.7-0.3-5.5-0.3c-2.2,0-4.4,0.2-6.6,0.6c-1.4,0.3-2.8,0.8-4.1,1.5
			c-0.9,0.5-1.6,1.2-2.1,2c-0.4,0.7-0.6,1.4-0.6,2.2c0,1.4,0.7,2.7,1.9,3.5c1.3,0.9,3.2,1.3,5.9,1.3c1.2,0,2.4-0.1,3.6-0.2
			c1.4-0.2,2.8-0.3,4.3-0.5s3.1-0.3,4.6-0.5s3.1-0.2,4.6-0.2c2.5,0,5,0.3,7.5,1c2,0.5,3.8,1.5,5.4,2.7c1.4,1.1,2.6,2.6,3.3,4.2
			c0.8,1.8,1.2,3.7,1.1,5.6c0,2.6-0.6,5.1-1.9,7.3s-3.2,4.1-5.4,5.4c-2.6,1.6-5.5,2.7-8.5,3.4c-3.6,0.8-7.4,1.2-11.1,1.1
			c-2.6,0-5.3-0.2-7.9-0.5c-2.5-0.3-4.9-0.8-7.4-1.4c-2.3-0.6-4.5-1.3-6.7-2.2c-2-0.8-4-1.8-5.9-2.8L178.9,571.2z"/>
		<path class="st2" d="M242.4,589.9c1,0.6,2,1.2,3.1,1.6c1.1,0.5,2.3,0.9,3.4,1.2c1.2,0.3,2.4,0.5,3.7,0.7c1.2,0.2,2.5,0.2,3.7,0.2
			c4.2,0,7.4-0.9,9.6-2.7s3.4-4.5,3.4-8v-1.2c-0.8,0.6-1.7,1.1-2.7,1.5c-1,0.5-2.1,0.9-3.2,1.2c-1.2,0.3-2.4,0.6-3.6,0.8
			c-1.3,0.2-2.5,0.3-3.8,0.3c-2.5,0-5-0.4-7.4-1.2c-2.1-0.7-4-2-5.5-3.5c-1.5-1.6-2.7-3.6-3.4-5.8c-0.8-2.5-1.2-5.2-1.2-7.8v-17.7h9
			v15.2c0,4.3,0.8,7.6,2.5,9.6c1.7,2.1,4.3,3.1,7.9,3.1c2.3,0,4.6-0.4,6.7-1.3c1.8-0.8,3.4-1.9,4.7-3.4v-23.2h9v31.9
			c0.1,3.1-0.4,6.1-1.5,9c-0.9,2.4-2.4,4.6-4.3,6.3c-2,1.7-4.3,3-6.8,3.7c-3,0.9-6.1,1.3-9.2,1.2c-3.2,0-6.3-0.3-9.4-1.1
			c-2.8-0.7-5.5-1.6-8-2.9L242.4,589.9z"/>
		<path class="st2" d="M288.2,574c0-1.6,0.4-3.3,1.1-4.7c0.8-1.5,2-2.8,3.4-3.7c1.7-1.1,3.6-1.9,5.6-2.4c2.6-0.6,5.2-0.9,7.8-0.8
			c2.3,0,4.7,0.2,7,0.5c2.6,0.3,5.1,0.8,7.6,1.5c-0.1-1.1-0.4-2.2-1-3.2s-1.5-1.9-2.5-2.5c-1.2-0.7-2.4-1.3-3.8-1.6
			c-1.6-0.4-3.3-0.6-5-0.6c-1,0-2.1,0.1-3.3,0.2s-2.5,0.3-3.8,0.5s-2.6,0.5-3.9,0.9c-1.2,0.3-2.4,0.8-3.5,1.3l-2.8-7.4
			c1.4-0.5,2.8-0.9,4.4-1.3s3.2-0.8,4.8-1s3.3-0.5,4.9-0.7s3.2-0.2,4.7-0.2c6.7,0,11.7,1.7,15,5.2c3.3,3.4,4.9,8.7,4.9,15.8v15.7h-9
			v-3.4c-1,0.6-2,1.1-3.1,1.6c-1.2,0.5-2.4,0.9-3.6,1.3c-1.4,0.4-2.8,0.7-4.2,0.9c-1.6,0.2-3.2,0.3-4.7,0.3c-2.5,0-5-0.3-7.4-0.9
			c-1.9-0.5-3.7-1.4-5.3-2.5c-1.4-1-2.5-2.3-3.2-3.8C288.6,577.3,288.2,575.7,288.2,574 M297.8,573.7c0,0.6,0.2,1.2,0.5,1.7
			c0.4,0.6,0.9,1.1,1.5,1.4c0.8,0.5,1.7,0.8,2.6,1c1.2,0.3,2.5,0.4,3.8,0.4c1.5,0,3.1-0.1,4.6-0.4c1.4-0.3,2.8-0.6,4.2-1.1
			c1.2-0.4,2.4-1,3.5-1.6c0.9-0.5,1.8-1.2,2.6-1.9v-1.6c-1.4-0.4-2.8-0.7-4.1-1s-2.7-0.5-3.9-0.6s-2.4-0.3-3.5-0.3s-2-0.1-2.8-0.1
			c-1.4,0-2.8,0.1-4.2,0.3c-0.9,0.2-1.9,0.5-2.7,0.9c-0.6,0.3-1.1,0.8-1.5,1.3C297.9,572.6,297.8,573.1,297.8,573.7"/>
		<path class="st2" d="M341.8,534.8h9v17.3c2-1.1,4.1-1.9,6.3-2.5c2.4-0.6,4.9-0.9,7.3-0.9c2.7,0,5.4,0.4,8,1.3
			c4.6,1.6,8.2,5.2,9.8,9.7c0.9,2.5,1.4,5.2,1.3,7.9v17.7h-9V568c0-1.6-0.3-3.2-0.8-4.7c-0.5-1.4-1.3-2.6-2.4-3.7
			c-1.1-1-2.4-1.8-3.9-2.4c-1.7-0.6-3.4-0.9-5.1-0.8c-2.2,0-4.4,0.4-6.4,1.1c-1.9,0.7-3.6,1.6-5.2,2.8v25h-9L341.8,534.8z"/>
		<path class="st2" d="M398.6,544.5c-0.8,0-1.6-0.1-2.4-0.4c-0.7-0.2-1.3-0.6-1.8-1s-0.9-0.9-1.2-1.5c-0.3-0.6-0.4-1.2-0.4-1.8
			s0.1-1.3,0.4-1.9c0.3-0.6,0.7-1.1,1.2-1.5s1.2-0.8,1.8-1c0.8-0.3,1.6-0.4,2.4-0.4s1.7,0.1,2.5,0.4c0.7,0.2,1.3,0.6,1.8,1
			s0.9,0.9,1.2,1.5c0.3,0.6,0.4,1.2,0.4,1.9c0,0.6-0.1,1.3-0.4,1.8c-0.3,0.6-0.7,1.1-1.2,1.5s-1.2,0.8-1.8,1
			C400.2,544.4,399.4,544.5,398.6,544.5 M394.1,549.4h9v36h-9V549.4z"/>
		<path class="st2" d="M411.8,567.5c0-2.7,0.5-5.3,1.6-7.8c1.1-2.3,2.6-4.3,4.5-5.9c2-1.7,4.3-3,6.8-3.8c2.7-0.9,5.6-1.4,8.5-1.3
			c1.3,0,2.6,0.1,3.9,0.2c1.2,0.2,2.5,0.4,3.7,0.7c1.1,0.3,2.2,0.6,3.3,1c0.9,0.4,1.9,0.8,2.7,1.3v-17.1h9v50.6h-9V582
			c-0.9,0.6-1.8,1.1-2.8,1.6c-1.1,0.5-2.3,0.9-3.5,1.3c-1.3,0.4-2.6,0.7-3.9,0.9c-4.1,0.7-8.4,0.3-12.4-1c-2.4-0.8-4.7-2.1-6.6-3.8
			c-1.8-1.6-3.3-3.6-4.3-5.8C412.3,572.7,411.8,570.2,411.8,567.5 M421.3,567.6c0,2.9,1.2,5.6,3.4,7.5c1.2,1,2.5,1.8,3.9,2.3
			c1.7,0.6,3.4,0.9,5.2,0.8c1.2,0,2.5-0.1,3.7-0.3s2.4-0.6,3.5-1s2.2-0.9,3.2-1.5c0.9-0.6,1.8-1.3,2.6-2v-12.5
			c-0.9-0.7-1.9-1.3-2.9-1.9c-1-0.5-2-0.9-3.1-1.3c-1-0.3-2.1-0.6-3.2-0.7c-1-0.1-2.1-0.2-3.2-0.2c-1.9,0-3.7,0.3-5.5,0.8
			c-1.5,0.5-2.9,1.3-4.1,2.3c-1.1,0.9-2,2.1-2.5,3.4C421.6,564.6,421.3,566.1,421.3,567.6"/>
		<path class="st2" d="M63.8,630.6h4v10.8c0,0.8,0.1,1.6,0.4,2.4c0.2,0.7,0.6,1.3,1.1,1.8s1.1,0.9,1.8,1.1c1.6,0.5,3.4,0.5,5,0
			c1.4-0.4,2.4-1.5,2.9-2.8c0.3-0.8,0.4-1.6,0.4-2.4v-10.8h4V642c0,1.2-0.2,2.4-0.7,3.5c-0.4,1-1.1,2-1.9,2.7
			c-0.9,0.8-1.9,1.4-3,1.8c-2.7,0.8-5.6,0.8-8.2,0c-1.1-0.4-2.1-1-3-1.8c-0.8-0.8-1.5-1.7-1.9-2.7c-0.4-1.1-0.7-2.3-0.6-3.5
			L63.8,630.6z"/>
		<rect x="99.5" y="630.6" class="st2" width="4" height="19.7"/>
		<polygon class="st2" points="120.4,630.6 124.4,630.6 136.6,637 136.6,630.6 140.6,630.6 140.6,650.3 136.6,650.3 136.6,641.3 
			124.4,634.9 124.4,650.3 120.4,650.3 		"/>
		<path class="st2" d="M174.6,653.5c0.5-0.3,1-0.7,1.5-1.1c0.4-0.4,0.7-0.8,1-1.3s0.5-1,0.6-1.6c0.1-0.7,0.2-1.3,0.2-2v-17h4v16.3
			c0,0.9,0,1.7-0.1,2.4s-0.2,1.3-0.4,2c-0.3,1.2-0.9,2.2-1.8,3.1c-0.5,0.5-1,0.9-1.5,1.3c-0.6,0.5-1.3,0.9-2,1.3L174.6,653.5z"/>
		<path class="st2" d="M205.6,630.6h4.2l9.5,19.7h-4.2l-1.6-3.3H202l-1.5,3.3h-4.2L205.6,630.6z M212,643.7l-4.2-8.9l-4.2,8.9H212z"
			/>
		<polygon class="st2" points="234.2,630.6 238.2,630.6 238.2,640.8 248.6,630.6 253.7,630.6 244,640 253.7,650.3 248.4,650.3 
			241.1,642.8 238.2,645.6 238.2,650.3 234.2,650.3 		"/>
		<path class="st2" d="M274.2,630.6h4.2l9.5,19.7h-4.2l-1.6-3.3h-11.5l-1.5,3.3h-4.2L274.2,630.6z M280.6,643.7l-4.3-8.9l-4.1,8.9
			H280.6z"/>
		<path class="st2" d="M302.8,630.6h10c1.3,0,2.6,0.1,3.9,0.5c1,0.3,1.9,0.7,2.8,1.4c0.7,0.6,1.3,1.3,1.6,2.2
			c0.4,0.9,0.5,1.9,0.5,2.9c0,0.7-0.1,1.4-0.3,2.1c-0.2,0.6-0.4,1.3-0.8,1.8c-0.4,0.6-0.8,1.1-1.4,1.5c-0.6,0.5-1.3,0.8-2,1.1
			l4.3,6.3h-4.9l-3.7-5.6h-6.2v5.6h-4L302.8,630.6z M312.9,641.2c0.7,0,1.4-0.1,2-0.3c0.5-0.1,1-0.4,1.4-0.7s0.7-0.7,0.9-1.2
			c0.2-0.5,0.3-1,0.3-1.5c0.1-1-0.4-1.9-1.1-2.5c-1-0.7-2.2-1-3.4-0.9h-6.1v7.2L312.9,641.2L312.9,641.2z"/>
		<polygon class="st2" points="344.2,634.1 336.9,634.1 336.9,630.6 355.4,630.6 355.4,634.1 348.2,634.1 348.2,650.3 344.2,650.3 
					"/>
		<path class="st2" d="M378.2,630.6h4.2l9.5,19.7h-4.2l-1.6-3.3h-11.5l-1.5,3.3h-4.2L378.2,630.6z M384.6,643.7l-4.3-8.9l-4.1,8.9
			H384.6z"/>
	</g>
</g>
</svg>
